<svg width="23" height="27" viewBox="0 0 23 27" fill="none" xmlns="http://www.w3.org/2000/svg">
<path d="M16.3775 15.2374L20.4645 17.5883C20.5981 16.7043 20.6669 15.8117 20.6702 14.9177L16.2411 12.374C16.3583 13.3237 16.4039 14.2809 16.3775 15.2374V15.2374Z" fill="#F05A28"/>
<path d="M18.1125 18.4856L16.1871 17.376C16.06 18.2409 15.8666 19.0949 15.6088 19.9302L18.1125 18.4856Z" fill="#F05A28"/>
<path d="M15.3138 4.65216L18.9577 6.75269C18.4749 5.63371 17.9013 4.55614 17.2427 3.53078L11.5018 0.214844L10.8424 0.595688C11.5701 1.42066 12.2379 2.29665 12.8406 3.21694L15.3138 4.65216Z" fill="#F05A28"/>
<path d="M14.3498 22.908C13.5738 24.3284 12.5763 25.6161 11.3948 26.7223L11.5017 26.7846L18.9317 22.4943C19.3866 21.5765 19.7534 20.6178 20.0273 19.6309L14.3498 22.908Z" fill="#F05A28"/>
<path d="M18.3934 11.3617L19.1234 11.7801V9.07659L18.8636 8.95081L14.619 6.5C15.0965 7.58389 15.483 8.70561 15.7745 9.85355L18.3934 11.3617Z" fill="#F05A28"/>
<path d="M17.2368 3.53027C17.8954 4.55563 18.469 5.6332 18.9518 6.75218L21.0676 7.97582V15.1461L20.6644 14.911C20.6616 15.8062 20.5932 16.6999 20.4599 17.5851L21.0676 17.9378V19.0239L20.0226 19.6269C19.7487 20.6138 19.3819 21.5726 18.9271 22.4903L23 20.1394V6.8568L17.2368 3.53027Z" fill="#F6921E"/>
<path d="M1.93126 19.0277V11.9421L3.47815 12.8307C3.40033 11.8014 3.24314 10.7796 3.00797 9.77452L1.93479 9.15624V7.97256L2.40497 7.69985C2.19339 7.08941 1.9536 6.48405 1.68559 5.88379L0 6.85706V20.1396L2.07702 21.3374C2.34299 20.741 2.57262 20.129 2.76465 19.5049L1.93126 19.0277Z" fill="#652D90"/>
<path d="M5.82787 5.7267C5.55634 5.14838 5.26013 4.57593 4.93335 4.01172L1.68441 5.89244C1.9532 6.49192 2.19299 7.09727 2.40378 7.70851L5.82787 5.7267Z" fill="#9E1F63"/>
<path d="M2.76343 19.5088C2.5714 20.1329 2.34177 20.7449 2.0758 21.3413L5.4176 23.2714C5.75392 22.7209 6.0558 22.1501 6.32152 21.5623L2.76343 19.5088Z" fill="#9E1F63"/>
<path d="M4.80173 8.56718L7.30425 10.0095C7.11189 9.17256 6.86852 8.3482 6.57548 7.54102L4.80173 8.56718Z" fill="#9E1F63"/>
<path d="M3.88013 15.3105V17.9024L7.02445 19.7173C7.25921 18.968 7.44184 18.2033 7.57104 17.4287L3.88013 15.3105Z" fill="#9E1F63"/>
<path d="M7.71802 12.4958L3.00447 9.7793C3.23964 10.7844 3.39683 11.8062 3.47465 12.8355L7.79325 15.3157C7.83809 14.3751 7.81295 13.4326 7.71802 12.4958V12.4958Z" fill="#9E1F63"/>
<path d="M9.97368 5.58258C10.2986 6.25095 10.5889 6.93557 10.8435 7.63373L11.3701 7.32929L15.7745 9.85298C15.4832 8.70383 15.0967 7.58093 14.6191 6.4959C12.984 5.55554 11.5018 4.69629 11.5018 4.69629L9.97368 5.58258Z" fill="#EC1C24"/>
<path d="M12.0119 12.7207L16.3775 15.2374C16.4035 14.2808 16.3576 13.3236 16.24 12.374L11.4688 9.63281C11.7288 10.6467 11.9104 11.679 12.0119 12.7207V12.7207Z" fill="#EC1C24"/>
<path d="M14.3499 22.9082L11.5018 24.5538L9.65042 23.4889C9.31046 24.0401 8.93551 24.569 8.52787 25.0722L11.3948 26.7272C12.5767 25.6195 13.5743 24.3303 14.3499 22.9082V22.9082Z" fill="#EC1C24"/>
<path d="M11.8426 17.6339L13.507 18.5907L11.5558 19.7168L11.3807 19.6157C11.1628 20.3508 10.8933 21.0696 10.5743 21.7668L11.5017 22.3016L15.6087 19.9308C15.8666 19.0954 16.0599 18.2415 16.1871 17.3765L12.0953 15.0186C12.0749 15.8953 11.9904 16.7695 11.8426 17.6339V17.6339Z" fill="#EC1C24"/>
<path d="M11.5018 2.44859C11.7368 2.58612 12.1377 2.81886 12.8335 3.22086C12.2308 2.30057 11.563 1.42458 10.8353 0.599609L7.98011 2.24524C8.36096 2.77419 8.71241 3.3149 9.03801 3.86383L11.5018 2.44859Z" fill="#EC1C24"/>
<path d="M11.4689 9.63243L9.42125 8.45698L10.8459 7.63416C10.5913 6.936 10.3009 6.25138 9.97607 5.58301L6.58019 7.54366C6.87323 8.35084 7.11661 9.17519 7.30897 10.0121L12.0108 12.7227C11.9098 11.6802 11.7286 10.6471 11.4689 9.63243V9.63243Z" fill="#D91C5C"/>
<path d="M12.0953 15.0186L7.71798 12.4961C7.81385 13.4313 7.84017 14.3722 7.79673 15.3113L11.8426 17.634C11.9904 16.7695 12.0749 15.8954 12.0953 15.0186Z" fill="#D91C5C"/>
<path d="M7.57108 17.4287C7.44189 18.2033 7.25925 18.968 7.0245 19.7173L10.5744 21.7673C10.8934 21.0701 11.1628 20.3513 11.3807 19.6162L7.57108 17.4287Z" fill="#D91C5C"/>
<path d="M6.32154 21.5625C6.05582 22.1503 5.75394 22.7211 5.41762 23.2716L8.52786 25.0677C8.93533 24.566 9.31028 24.0387 9.65041 23.4891L6.32154 21.5625Z" fill="#D91C5C"/>
<path d="M9.04744 3.86761C8.71949 3.31868 8.36803 2.77798 7.98953 2.24902L4.93336 4.0122C5.26014 4.57641 5.55635 5.14885 5.82788 5.72718L9.04744 3.86761Z" fill="#D91C5C"/>
</svg>