<svg width="34" height="34" viewBox="0 0 34 34" fill="none" xmlns="http://www.w3.org/2000/svg"><path d="M17 33C25.8366 33 33 25.8366 33 17C33 8.16344 25.8366 1 17 1C8.16344 1 1 8.16344 1 17C1 25.8366 8.16344 33 17 33Z" fill="#EAEFFB" stroke="#85A4E0" stroke-linecap="round" stroke-linejoin="round" stroke-dasharray="3 3"/><path d="M24.3999 11.7998V15.7998H20.3999" stroke="#85A4E0" stroke-width="2" stroke-linecap="round" stroke-linejoin="round"/><path d="M10 22.2002V18.2002H14" stroke="#85A4E0" stroke-width="2" stroke-linecap="round" stroke-linejoin="round"/><path d="M11.6429 14.9995C11.9749 14.0437 12.5391 13.1893 13.2829 12.5158C14.0266 11.8423 14.9258 11.3717 15.8963 11.148C16.8669 10.9242 17.8773 10.9546 18.8332 11.2363C19.7891 11.518 20.6594 12.0418 21.3629 12.7589L24.4 15.6663M10 18.3337L13.0371 21.2411C13.7406 21.9582 14.6109 22.482 15.5668 22.7637C16.5227 23.0454 17.5331 23.0758 18.5037 22.852C19.4742 22.6283 20.3734 22.1577 21.1171 21.4842C21.8609 20.8107 22.4251 19.9563 22.7571 19.0005" stroke="#85A4E0" stroke-width="2" stroke-linecap="round" stroke-linejoin="round"/></svg>