<svg width="48" height="37" viewBox="0 0 48 37" fill="none" xmlns="http://www.w3.org/2000/svg">
<path d="M40.634 3.31119C37.5747 1.90743 34.294 0.873198 30.8638 0.280851C30.8013 0.269419 30.7389 0.297988 30.7067 0.355129C30.2848 1.10556 29.8175 2.08456 29.4902 2.85404C25.8008 2.30171 22.1304 2.30171 18.5166 2.85404C18.1893 2.06745 17.705 1.10556 17.2811 0.355129C17.249 0.299895 17.1866 0.271325 17.1241 0.280851C13.6958 0.871305 10.4151 1.90554 7.35387 3.31119C7.32737 3.32262 7.30465 3.34168 7.28958 3.36643C1.06678 12.6631 -0.6379 21.7314 0.19836 30.6871C0.202144 30.731 0.22674 30.7729 0.260796 30.7995C4.36642 33.8146 8.34341 35.645 12.2466 36.8583C12.309 36.8773 12.3752 36.8545 12.415 36.803C13.3383 35.5422 14.1613 34.2127 14.867 32.8146C14.9086 32.7328 14.8688 32.6356 14.7837 32.6032C13.4783 32.108 12.2352 31.5042 11.0395 30.8186C10.9449 30.7633 10.9373 30.6281 11.0243 30.5633C11.2759 30.3747 11.5276 30.1786 11.7679 29.9805C11.8114 29.9443 11.872 29.9367 11.9231 29.9595C19.7786 33.5461 28.2831 33.5461 36.0459 29.9595C36.097 29.9348 36.1576 29.9424 36.203 29.9786C36.4433 30.1767 36.6949 30.3747 36.9484 30.5633C37.0354 30.6281 37.0298 30.7633 36.9352 30.8186C35.7394 31.5176 34.4964 32.108 33.189 32.6013C33.1039 32.6337 33.0661 32.7328 33.1077 32.8146C33.8285 34.2108 34.6515 35.5402 35.5578 36.8011C35.5957 36.8545 35.6637 36.8773 35.7262 36.8583C39.6483 35.645 43.6252 33.8146 47.7309 30.7995C47.7668 30.7729 47.7895 30.7329 47.7933 30.689C48.7942 20.3352 46.117 11.3413 40.6964 3.36832C40.6832 3.34168 40.6605 3.32262 40.634 3.31119ZM16.04 25.234C13.675 25.234 11.7263 23.0627 11.7263 20.3962C11.7263 17.7296 13.6372 15.5583 16.04 15.5583C18.4617 15.5583 20.3916 17.7486 20.3538 20.3962C20.3538 23.0627 18.4428 25.234 16.04 25.234ZM31.9895 25.234C29.6245 25.234 27.6758 23.0627 27.6758 20.3962C27.6758 17.7296 29.5867 15.5583 31.9895 15.5583C34.4113 15.5583 36.3411 17.7486 36.3033 20.3962C36.3033 23.0627 34.4113 25.234 31.9895 25.234Z" fill="#272727"/>
</svg>
