<svg width="121" height="118" viewBox="0 0 121 118" fill="none" xmlns="http://www.w3.org/2000/svg">
<path d="M2.03799 82.1974C1.78725 85.0784 55.2567 115.971 59.5091 115.971C63.7615 115.971 117.891 86.0199 118.045 82.6733C118.198 79.3267 64.8259 48.6184 60.42 48.6184C56.0141 48.6184 2.3399 78.7024 2.03799 82.1974Z" fill="white"/>
<path d="M8.77734 76.7067C23.2334 86.3781 56.2034 104.984 59.5091 104.984C62.8148 104.984 96.7674 86.6084 111.392 77.0393C96.9772 67.2194 63.8536 48.5928 60.42 48.5928C56.9864 48.5928 23.392 67.0096 8.77734 76.7067Z" fill="#E6E6E6"/>
<path d="M59.5297 117.997C56.265 117.997 38.0375 107.671 30.3362 103.234C26.0787 100.778 4.66837 88.3227 0.968642 84.3005C0.656683 84.0134 0.40918 83.6633 0.242467 83.2734C0.0757544 82.8835 -0.00637725 82.4627 0.0014932 82.0387C0.0987198 80.9386 0.195947 79.8025 9.5604 73.7694C14.4575 70.6121 21.2481 66.549 28.6782 62.3222C33.2837 59.692 56.5874 46.5664 60.4048 46.5664C63.7719 46.5664 81.6974 56.6933 89.2504 61.048C101.383 68.0432 115.542 76.768 118.894 80.2784C119.467 80.8823 120.122 81.7061 120.076 82.7654C120.015 84.1214 119.314 85.4263 110.517 91.0143C105.615 94.1307 98.7888 98.1784 91.3075 102.359C86.6508 104.954 63.2448 117.997 59.5297 117.997ZM4.68372 82.1769C7.45724 84.5462 16.8012 90.6612 31.0475 98.9255C46.399 107.824 57.447 113.458 59.5144 113.888C61.6022 113.474 73.1005 107.84 88.493 99.2274C103.333 90.9273 112.748 84.93 115.471 82.5965C112.82 80.2119 103.578 74.0713 89.0047 65.6023C73.8476 56.7957 62.4772 51.0388 60.4201 50.6448C58.3733 51.0286 46.8493 56.7087 31.4773 65.4181C16.7808 73.754 7.42142 79.7974 4.66325 82.1871L4.68372 82.1769Z" fill="#191919"/>
<path d="M2.03799 59.8455C1.78725 62.7265 55.2567 93.619 59.5091 93.619C63.7615 93.619 117.891 63.6681 118.045 60.3214C118.198 56.9748 64.831 26.2614 60.42 26.2614C56.009 26.2614 2.3399 56.3505 2.03799 59.8455Z" fill="#E83A2A"/>
<path d="M10.4609 53.2546C25.6436 63.1666 56.3263 80.4217 59.5092 80.4217C62.6921 80.4217 94.3061 63.3713 109.709 53.5616C94.5517 43.5115 63.7257 26.2614 60.42 26.2614C57.1143 26.2614 25.8227 43.3324 10.4609 53.2546Z" fill="#D32920"/>
<path d="M59.5298 95.6453C56.2651 95.6453 38.0376 85.3188 30.3363 80.8822C26.0788 78.426 4.66845 65.9708 0.968725 61.9487C0.659824 61.6591 0.415757 61.3073 0.252588 60.9166C0.0894191 60.5259 0.0108476 60.105 0.0220449 59.6817C0.119271 58.5815 0.216498 57.4455 9.58095 51.4124C14.4576 48.2653 21.2481 44.1715 28.6783 39.955C33.2838 37.3247 56.5874 24.1992 60.4049 24.1992C63.772 24.1992 81.6975 34.3261 89.2504 38.6808C101.399 45.676 115.558 54.4059 118.889 57.9112C119.462 58.515 120.117 59.3389 120.071 60.3981C120.01 61.7542 119.309 63.0591 110.512 68.647C105.61 71.7634 98.7838 75.8111 91.3024 79.9919C86.6509 82.6067 63.2449 95.6453 59.5298 95.6453ZM4.6838 59.825C7.47779 62.184 16.8218 68.2991 31.068 76.5633C46.4196 85.4621 57.4676 91.0961 59.5349 91.526C61.6228 91.1115 73.1211 85.4775 88.5136 76.8653C103.353 68.5652 112.769 62.5678 115.491 60.2344C112.841 57.8498 103.599 51.7092 89.0253 43.2402C73.8579 34.4489 62.4773 28.6972 60.4202 28.3083C58.3733 28.692 46.8494 34.3721 31.4774 43.0816C16.7808 51.4021 7.4215 57.4506 4.66333 59.8353L4.6838 59.825Z" fill="#191919"/>
<path d="M2.03799 35.6719C1.78725 38.5529 55.2567 69.4453 59.5091 69.4453C63.7615 69.4453 117.891 39.474 118.045 36.1273C118.198 32.7807 64.8259 2.07245 60.42 2.07245C56.0141 2.07245 2.3399 32.1769 2.03799 35.6719Z" fill="white"/>
<path d="M59.5298 71.4718C56.265 71.4718 38.0376 61.1453 30.3362 56.7087C26.0787 54.2524 4.6684 41.7972 0.968675 37.7751C0.65145 37.4833 0.400849 37.1266 0.23395 36.7292C0.0670512 36.3318 -0.0122239 35.9031 0.00152656 35.4723C0.0987531 34.3721 0.19598 33.2361 9.56043 27.203C14.4576 24.0457 21.2481 19.9826 28.6782 15.7558C33.2837 13.1256 56.5874 0 60.4048 0C63.7719 0 81.6974 10.1269 89.2504 14.4816C101.399 21.5024 115.558 30.2272 118.889 33.7376C119.462 34.3414 120.117 35.1653 120.071 36.2246C120.01 37.5806 119.309 38.8855 110.512 44.4735C105.61 47.5898 98.7837 51.6375 91.3024 55.8183C86.6509 58.4332 63.2448 71.4718 59.5298 71.4718ZM4.68375 35.6514C7.45727 38.0309 16.8013 44.1357 31.0475 52.4051C46.3991 61.3039 57.4471 66.9379 59.5144 67.3678C61.6022 66.9533 73.1006 61.3193 88.4931 52.707C103.333 44.407 112.749 38.4096 115.471 36.0762C112.82 33.6916 103.579 27.5561 89.0048 19.0973C73.8579 10.2753 62.4773 4.52359 60.4202 4.12957C58.3733 4.51336 46.8494 10.1934 31.4773 18.9029C16.7808 27.2286 7.42145 33.272 4.66328 35.6617L4.68375 35.6514Z" fill="#191919"/>
<path d="M34.256 26.6656C34.0769 28.7125 71.9646 50.5834 74.9786 50.5834C77.9926 50.5834 101.035 38.3891 101.143 36.0199C101.25 33.6506 63.4342 11.8872 60.3127 11.8872C57.1912 11.8872 34.4556 24.1838 34.256 26.6656Z" fill="white"/>
<path d="M74.9783 52.6251C72.7268 52.6251 62.3235 46.8939 53.9979 42.0837C50.9685 40.3337 35.7295 31.4656 33.043 28.5437C32.7714 28.2781 32.558 27.9591 32.4161 27.6067C32.2743 27.2544 32.2072 26.8764 32.2191 26.4968C32.3061 25.4734 32.4699 23.6363 45.2014 16.5643C48.0415 14.9882 57.5185 9.84546 60.3125 9.84546C64.5086 9.84546 98.3127 29.8639 102.186 33.8962C102.499 34.1731 102.751 34.5113 102.927 34.8899C103.103 35.2684 103.2 35.6792 103.21 36.0966C103.159 37.2275 103.082 38.9418 90.1508 45.9728C88.0886 47.0935 77.7774 52.6251 74.9783 52.6251ZM36.932 26.5735C42.7042 31.1483 70.9358 47.5182 75.0346 48.5212C77.89 48.0401 94.3981 39.4382 98.4918 36.0557C92.9141 31.4809 64.3755 14.8654 60.246 13.9392C57.5697 14.323 41.0514 23.0836 36.932 26.5735Z" fill="#191919"/>
<path d="M34.7922 36.7573C35.2689 35.5297 34.344 34.0253 32.7264 33.3972C31.1088 32.7691 29.4111 33.2552 28.9344 34.4829C28.4577 35.7106 29.3826 37.215 31.0002 37.843C32.6178 38.4711 34.3156 37.985 34.7922 36.7573Z" fill="white"/>
<path d="M32.4494 40.1699C31.7014 40.1664 30.9605 40.0241 30.2643 39.7503C29.1009 39.3119 28.1114 38.5073 27.4448 37.4578C27.0819 36.9165 26.8551 36.2956 26.7837 35.6479C26.7122 35.0002 26.7982 34.3448 27.0343 33.7374C27.2704 33.13 27.6497 32.5887 28.1399 32.1593C28.6301 31.7299 29.2167 31.4252 29.8499 31.2711C31.0505 30.9476 32.3238 31.0231 33.4779 31.486C36.1901 32.5402 37.6075 35.1806 36.712 37.4936C36.361 38.3225 35.764 39.0236 35.0017 39.5022C34.2393 39.9809 33.3484 40.2139 32.4494 40.1699ZM30.8835 35.2216C31.09 35.5384 31.3908 35.7823 31.7433 35.9191C32.0958 36.0559 32.4824 36.0786 32.8485 35.984C32.6393 35.668 32.336 35.4259 31.9815 35.2918C31.627 35.1577 31.2393 35.1385 30.8733 35.2369L30.8835 35.2216Z" fill="#191919"/>
<path d="M24.0319 32.7858C24.4822 33.2361 64.4986 58.0954 65.1638 58.4383C67.4051 59.5897 68.6844 55.9462 67.7889 55.2401C67.0981 54.6976 27.619 30.3552 26.9743 29.9714C25.3112 29.0145 23.0698 31.8289 24.0319 32.7858Z" fill="#191919"/>
<path d="M47.5711 49.867C48.4359 50.1843 52.4171 52.6712 52.9441 53.3211C54.0341 54.6669 52.8827 57.0976 50.8359 56.3914C48.9893 55.6467 47.2632 54.6327 45.7136 53.3825C43.6667 51.5915 46.1639 49.3553 47.5711 49.867Z" fill="#191919"/>
<path d="M56.8433 55.8797C55.0216 54.7386 53.1334 58.0545 54.6685 59.2724C55.6306 60.0349 58.5013 61.9231 59.7857 62.4092C61.8326 63.1768 63.4343 60.2344 62.027 58.9551C60.7836 57.8191 57.8668 56.5193 56.8433 55.8797Z" fill="#191919"/>
</svg>