<svg width="121" height="118" viewBox="0 0 121 118" fill="none" xmlns="http://www.w3.org/2000/svg">
<path d="M2.49648 82.1977C2.24574 85.0787 55.7152 115.971 59.9676 115.971C64.22 115.971 118.35 86.0202 118.503 82.6736C118.657 79.327 65.2844 48.6187 60.8785 48.6187C56.4726 48.6187 2.7984 78.7027 2.49648 82.1977Z" fill="white"/>
<path d="M9.23584 76.707C23.6919 86.3785 56.6619 104.985 59.9676 104.985C63.2733 104.985 97.2259 86.6087 111.851 77.0396C97.4357 67.2197 64.3121 48.5931 60.8785 48.5931C57.4449 48.5931 23.8505 67.0099 9.23584 76.707Z" fill="#E6E6E6"/>
<path d="M10.9194 53.2549C26.1021 63.1669 56.7848 80.422 59.9677 80.422C63.1506 80.422 94.7645 63.3716 110.167 53.5619C95.0102 43.5118 64.1842 26.2617 60.8785 26.2617C57.5728 26.2617 26.2812 43.3327 10.9194 53.2549Z" fill="#D32920"/>
<path d="M59.9883 95.6456C56.7236 95.6456 38.4961 85.3192 30.7948 80.8826C26.5373 78.4263 5.12695 65.9711 1.42722 61.949C1.11832 61.6594 0.874253 61.3076 0.711084 60.9169C0.547915 60.5262 0.469344 60.1053 0.480541 59.682C0.577768 58.5818 0.674994 57.4458 10.0394 51.4127C14.9161 48.2656 21.7066 44.1718 29.1368 39.9553C33.7423 37.325 57.0459 24.1995 60.8634 24.1995C64.2305 24.1995 82.156 34.3264 89.7089 38.6811C101.857 45.6763 116.016 54.4062 119.348 57.9115C119.921 58.5153 120.576 59.3392 120.53 60.3985C120.468 61.7545 119.767 63.0594 110.971 68.6474C106.069 71.7637 99.2423 75.8114 91.7609 79.9922C87.1094 82.607 63.7034 95.6456 59.9883 95.6456ZM5.1423 59.8253C7.93628 62.1843 17.2803 68.2994 31.5265 76.5636C46.8781 85.4624 57.9261 91.0965 59.9934 91.5263C62.0812 91.1118 73.5796 85.4778 88.9721 76.8656C103.812 68.5655 113.228 62.5681 115.95 60.2347C113.299 57.8501 104.058 51.7095 89.4838 43.2405C74.3164 34.4492 62.9358 28.6975 60.8787 28.3086C58.8318 28.6924 47.3079 34.3724 31.9359 43.0819C17.2393 51.4024 7.87999 57.4509 5.12183 59.8356L5.1423 59.8253Z" fill="#191919"/>
<path d="M2.49648 35.6722C2.24574 38.5532 55.7152 69.4456 59.9676 69.4456C64.22 69.4456 118.35 39.4743 118.503 36.1276C118.657 32.781 65.2844 2.07275 60.8785 2.07275C56.4726 2.07275 2.7984 32.1772 2.49648 35.6722Z" fill="white"/>
<path d="M59.9883 71.4721C56.7235 71.4721 38.4961 61.1456 30.7947 56.709C26.5372 54.2527 5.1269 41.7975 1.42717 37.7754C1.10995 37.4836 0.859345 37.1269 0.692446 36.7295C0.525547 36.3321 0.446272 35.9034 0.460023 35.4726C0.557249 34.3725 0.654476 33.2364 10.0189 27.2033C14.9161 24.046 21.7066 19.9829 29.1367 15.7561C33.7422 13.1259 57.0459 0.000305176 60.8633 0.000305176C64.2304 0.000305176 82.1559 10.1272 89.7089 14.4819C101.857 21.5027 116.016 30.2275 119.348 33.7379C119.921 34.3418 120.576 35.1656 120.53 36.2249C120.468 37.5809 119.767 38.8858 110.971 44.4738C106.069 47.5901 99.2422 51.6378 91.7609 55.8186C87.1094 58.4335 63.7033 71.4721 59.9883 71.4721ZM5.14225 35.6517C7.91576 38.0312 17.2597 44.136 31.506 52.4054C46.8576 61.3042 57.9056 66.9382 59.9729 67.3681C62.0607 66.9536 73.559 61.3196 88.9515 52.7073C103.791 44.4073 113.207 38.4099 115.929 36.0765C113.279 33.6919 104.037 27.5564 89.4633 19.0976C74.3164 10.2756 62.9358 4.5239 60.8787 4.12988C58.8318 4.51366 47.3079 10.1937 31.9358 18.9032C17.2393 27.2289 7.87994 33.2723 5.12178 35.662L5.14225 35.6517Z" fill="#191919"/>
<path d="M34.7145 26.666C34.5354 28.7128 72.4231 50.5837 75.4371 50.5837C78.4511 50.5837 101.494 38.3894 101.601 36.0202C101.709 33.6509 63.8927 11.8875 60.7712 11.8875C57.6497 11.8875 34.9141 24.1841 34.7145 26.666Z" fill="white"/>
<path d="M75.4368 52.6255C73.1853 52.6255 62.782 46.8942 54.4564 42.084C51.427 40.334 36.188 31.4659 33.5015 28.544C33.2299 28.2784 33.0165 27.9594 32.8746 27.607C32.7328 27.2547 32.6657 26.8767 32.6776 26.4971C32.7646 25.4737 32.9284 23.6366 45.6599 16.5646C48.5 14.9885 57.977 9.84576 60.771 9.84576C64.9671 9.84576 98.7712 29.8642 102.645 33.8965C102.957 34.1734 103.21 34.5116 103.386 34.8902C103.562 35.2688 103.658 35.6795 103.668 36.0969C103.617 37.2278 103.54 38.9421 90.6093 45.9731C88.5471 47.0938 78.2359 52.6255 75.4368 52.6255ZM37.3905 26.5739C43.1627 31.1486 71.3943 47.5185 75.4931 48.5215C78.3485 48.0405 94.8566 39.4385 98.9503 36.056C93.3726 31.4812 64.834 14.8657 60.7044 13.9395C58.0282 14.3233 41.5099 23.0839 37.3905 26.5739Z" fill="#191919"/>
<path d="M35.2507 36.7576C35.7274 35.53 34.8025 34.0256 33.1849 33.3975C31.5673 32.7694 29.8696 33.2555 29.3929 34.4832C28.9162 35.7109 29.8411 37.2153 31.4587 37.8433C33.0763 38.4714 34.7741 37.9853 35.2507 36.7576Z" fill="white"/>
<path d="M32.9079 40.1702C32.1599 40.1667 31.419 40.0244 30.7228 39.7506C29.5594 39.3122 28.5699 38.5076 27.9033 37.4581C27.5404 36.9168 27.3136 36.2959 27.2422 35.6482C27.1707 35.0005 27.2567 34.3451 27.4928 33.7377C27.7289 33.1303 28.1082 32.589 28.5984 32.1596C29.0886 31.7302 29.6752 31.4255 30.3084 31.2714C31.509 30.9479 32.7823 31.0234 33.9364 31.4863C36.6485 32.5405 38.066 35.181 37.1705 37.4939C36.8195 38.3228 36.2225 39.0239 35.4602 39.5025C34.6978 39.9812 33.8069 40.2142 32.9079 40.1702ZM31.342 35.2219C31.5485 35.5387 31.8493 35.7826 32.2018 35.9194C32.5543 36.0562 32.9409 36.0789 33.307 35.9844C33.0978 35.6683 32.7944 35.4262 32.44 35.2921C32.0855 35.158 31.6978 35.1388 31.3318 35.2372L31.342 35.2219Z" fill="#191919"/>
<path d="M24.4904 32.7861C24.9407 33.2365 64.9571 58.0957 65.6223 58.4386C67.8636 59.59 69.1429 55.9465 68.2474 55.2404C67.5566 54.6979 28.0775 30.3555 27.4327 29.9717C25.7697 29.0148 23.5283 31.8292 24.4904 32.7861Z" fill="#191919"/>
<path d="M48.0296 49.8673C48.8944 50.1846 52.8756 52.6715 53.4026 53.3214C54.4926 54.6672 53.3412 57.0979 51.2944 56.3917C49.4478 55.647 47.7217 54.633 46.1721 53.3828C44.1252 51.5918 46.6224 49.3556 48.0296 49.8673Z" fill="#191919"/>
<path d="M57.3018 55.88C55.4801 54.7389 53.5919 58.0548 55.127 59.2727C56.0891 60.0352 58.9598 61.9234 60.2442 62.4095C62.2911 63.1771 63.8928 60.2347 62.4855 58.9554C61.2421 57.8194 58.3253 56.5196 57.3018 55.88Z" fill="#191919"/>
</svg>