<svg width="30" height="30" viewBox="0 0 30 30" fill="none" xmlns="http://www.w3.org/2000/svg">
<path d="M14.9991 0.599976C7.05992 0.599976 0.599609 7.05927 0.599609 14.9995C0.599609 22.9397 7.05992 29.399 14.9991 29.399C22.9393 29.399 29.3996 22.9407 29.3996 14.9995C29.3996 7.05927 22.9393 0.599976 14.9991 0.599976Z" fill="#272727" fill-opacity="0.06"/>
<path fill-rule="evenodd" clip-rule="evenodd" d="M10.2946 2.72632C8.72726 3.33007 7.30632 4.22248 6.09374 5.34154L6.09209 5.34584L6.09208 5.34584C6.07033 5.4022 6.04968 5.45567 6.03581 5.50722C5.986 5.70643 6.38444 5.55702 6.38444 5.55702L6.82962 5.75522L7.37544 5.55702C7.37544 5.55702 7.52485 5.25921 7.87043 5.01223C8.11951 4.83379 8.16506 4.75712 8.22547 4.65545C8.24937 4.61523 8.27559 4.57109 8.31765 4.5152C8.39108 4.41763 8.39184 4.41687 8.45183 4.35688C8.51307 4.29565 8.63603 4.17269 8.96104 3.82201C9.60646 3.12678 9.95305 3.1278 9.95305 3.1278C9.95305 3.1278 10.1401 2.92452 10.2946 2.72632ZM12.0357 6.49822L11.8385 6.20143L12.0357 5.75522L12.5134 5.94631V5.06101L12.9698 4.81403L13.3489 5.35882L13.9323 6.00424L13.545 6.30103L12.5124 6.49924V5.97375L12.0357 6.49822ZM18.9767 11.3069C18.9767 11.3069 18.5976 11.067 18.4818 11.1585C17.9857 11.5559 16.8443 11.3069 16.5994 11.2062C16.3503 11.1066 16.2019 10.9592 16.2019 10.8098C16.2019 10.6604 15.9783 9.94182 15.9783 9.94182C15.9783 9.94182 15.4945 10.0282 15.3461 10.0282C15.1977 10.0282 14.8074 9.8727 14.8074 9.8727C14.8074 9.8727 14.3135 9.91946 14.1153 10.0191C13.9191 10.1187 13.5227 10.2661 13.3743 10.3159C13.2259 10.3657 12.8305 10.4144 12.8305 10.4144C12.3843 10.2162 12.0377 10.7112 11.9371 10.9094C11.8982 10.9888 11.8433 11.0521 11.7912 11.1122C11.7125 11.2029 11.6403 11.2862 11.6403 11.4054C11.6403 11.6047 11.2927 11.9015 11.1443 12.0001C11.1156 12.0195 11.0717 12.0464 11.0186 12.079C10.7992 12.2135 10.4222 12.4448 10.3027 12.6445C10.1533 12.8925 10.0049 13.1903 9.95509 13.4383C9.9063 13.6863 9.9063 13.8845 9.9063 14.2311C9.9063 14.3549 9.89994 14.4599 9.89404 14.5574L9.89404 14.5574C9.88343 14.7327 9.87429 14.8837 9.9063 15.0757C9.95407 15.3715 10.4511 16.1155 10.6483 16.3645C10.8475 16.6125 11.0955 16.9093 11.3445 17.0577C11.5905 17.2071 11.9391 17.5039 11.9391 17.5039C11.9391 17.5039 12.1363 17.8007 12.5317 17.6523C12.6976 17.5901 12.863 17.5538 13.0247 17.5183C13.2513 17.4685 13.4707 17.4204 13.6741 17.3047C14.0217 17.1075 14.5665 16.8585 14.5665 17.1563C14.5665 17.4541 14.7637 17.6533 15.0615 17.5537C15.1088 17.5379 15.1611 17.5183 15.2154 17.4981L15.2155 17.498C15.5029 17.3906 15.8464 17.2622 15.8045 17.5537C15.7735 17.7746 15.8222 18.0349 15.8617 18.2467L15.8617 18.2468L15.8617 18.2468L15.8617 18.2468C15.8844 18.3682 15.9041 18.4738 15.9041 18.5468C15.9041 18.5865 15.9021 18.6263 15.9001 18.6658C15.8921 18.8215 15.8844 18.9722 16.0027 19.0905C16.0491 19.1369 16.1197 19.193 16.1951 19.2528C16.3611 19.3846 16.5496 19.5343 16.5496 19.6363C16.5496 19.7837 16.5973 20.2797 16.6969 20.479C16.7965 20.6782 16.8951 20.975 16.7955 21.1732C16.6969 21.3714 16.4967 21.9172 16.4967 21.9172C16.4967 21.9172 16.393 22.3624 16.4428 22.5108C16.4926 22.6612 16.5841 22.8584 16.8321 23.1064C16.9752 23.2488 17.0141 23.4085 17.05 23.5562C17.0764 23.6646 17.1013 23.7665 17.1645 23.8504C17.3139 24.0486 17.4643 24.6432 17.4643 24.6432L17.4867 25.1392V25.5844C17.4867 25.5844 18.5803 25.436 18.7785 25.3862C18.9767 25.3364 19.7523 24.9888 19.9495 24.7916C20.0383 24.7023 20.0795 24.623 20.1202 24.545C20.1702 24.4489 20.2193 24.3546 20.355 24.2458C20.604 24.0486 21.0553 23.7 21.0553 23.7L21.0065 22.957L21.6042 22.1652L22.0514 21.718C22.0514 21.718 22.4468 21.1732 22.398 20.975C22.3492 20.7768 22.2496 19.7847 22.2496 19.7847C22.2496 19.7847 22.4488 19.3385 22.5972 19.1403C22.6504 19.0684 22.6846 18.9902 22.7207 18.9079L22.7207 18.9079C22.7844 18.7622 22.8537 18.604 23.0434 18.4461C23.295 18.2375 23.4748 17.9926 23.6146 17.8021L23.6146 17.8021C23.6403 17.7671 23.6646 17.7339 23.6878 17.7031L23.7191 17.6614L23.7191 17.6613C23.8748 17.4536 24.1405 17.0987 24.2326 16.9601C24.3312 16.8107 24.4318 16.3655 24.4318 16.3655L23.5374 16.5139C23.3643 16.2247 23.0054 15.7337 22.7067 15.3252L22.7066 15.3251L22.7066 15.325L22.7063 15.3247C22.493 15.0328 22.3104 14.7831 22.2486 14.6793C22.1002 14.4313 21.9518 13.9353 21.902 13.7371C21.8706 13.6129 21.7605 13.3498 21.6707 13.1351L21.6706 13.1349L21.6706 13.1349C21.6179 13.0089 21.5721 12.8996 21.5534 12.8447C21.5177 12.7364 21.3241 12.4695 21.1833 12.2755C21.1312 12.2036 21.0863 12.1418 21.0594 12.1017C21.0012 12.0145 20.859 11.9443 20.711 11.8712C20.6054 11.8191 20.4969 11.7655 20.414 11.7033C20.2158 11.5549 18.9767 11.3069 18.9767 11.3069ZM2.18259 17.9227C2.24663 17.9389 2.3381 17.9857 2.46719 18.1005C2.65421 18.2632 2.765 18.3465 3.013 18.4471C3.14139 18.4994 3.22995 18.5641 3.32723 18.6351L3.32724 18.6351C3.4171 18.7008 3.5144 18.7718 3.65741 18.8435C3.7074 18.8686 3.74622 18.8867 3.77808 18.9016L3.77812 18.9016C3.82177 18.9219 3.85236 18.9362 3.88072 18.954C3.94715 18.9957 4.00136 19.0568 4.18251 19.2612L4.25201 19.3396C4.58104 19.7081 4.60352 19.7716 4.65747 19.9238C4.66868 19.9554 4.68125 19.9909 4.69821 20.0338C4.7968 20.2828 4.94621 20.5288 5.04582 20.6792C5.11192 20.7777 5.26484 20.8542 5.40361 20.9237C5.47397 20.9589 5.54069 20.9923 5.59062 21.0258C5.73902 21.1254 5.98702 21.224 6.13542 21.224C6.20652 21.224 6.34484 21.325 6.49702 21.4362C6.66463 21.5587 6.84905 21.6934 6.97904 21.719C7.22704 21.7698 7.22704 22.2658 7.22704 22.2658L6.97904 22.959L6.77982 23.702L6.97904 24.2966C6.97904 24.2966 6.68021 24.5456 6.48404 24.5456C6.40723 24.5456 6.35174 24.566 6.29839 24.5857C6.22466 24.6128 6.15502 24.6384 6.03886 24.6066C4.14833 22.8411 2.77719 20.5318 2.18259 17.9227ZM24.1828 20.8764C24.1828 21.0248 24.133 21.4222 24.0832 21.6204C24.0624 21.6998 24.0343 21.8033 24.0049 21.9114L24.0048 21.9117L24.0047 21.9122C23.9608 22.0735 23.9142 22.245 23.885 22.3624C23.8352 22.5616 23.5872 22.958 23.4398 23.0576C23.3801 23.0977 23.3041 23.1698 23.225 23.2449L23.225 23.2449C23.1075 23.3565 22.9831 23.4746 22.895 23.5038C22.7466 23.5536 22.646 23.1562 22.6958 22.958C22.7466 22.7598 22.9936 22.215 22.9936 22.215C22.9936 22.215 23.0434 21.9182 23.0922 21.719C23.143 21.5218 23.7376 21.2738 23.7376 21.2738L24.135 20.5299C24.1349 20.5309 24.1364 20.5381 24.139 20.5502L24.139 20.5502L24.139 20.5502C24.1505 20.6048 24.1828 20.7577 24.1828 20.8764ZM4.50103 7.24223C4.50103 7.30353 4.47516 7.35045 4.44743 7.40074C4.38551 7.51306 4.31428 7.64224 4.50103 7.98624C4.84661 8.63065 4.54981 8.92846 4.54981 8.92846C4.54981 8.92846 3.70619 9.52306 3.5578 9.62267C3.4094 9.72227 3.013 10.2671 3.25999 10.1177C3.50799 9.96926 3.80479 9.82087 3.5578 10.2173C3.4847 10.3344 3.39438 10.4729 3.30081 10.6164L3.3008 10.6164L3.3008 10.6164C3.07694 10.9597 2.83453 11.3315 2.765 11.5071C2.72915 11.5976 2.64076 11.7337 2.54278 11.8846C2.37128 12.1487 2.1704 12.458 2.1704 12.6475C2.1704 12.7777 2.13254 12.9647 2.09407 13.1548C2.04452 13.3996 1.99396 13.6493 2.022 13.7889C2.05554 13.9617 1.94577 14.4709 1.85938 14.6803C1.92646 11.8933 2.86461 9.32486 4.41362 7.22394C4.46444 7.22902 4.50103 7.24223 4.50103 7.24223ZM28.1283 15.5652C28.1411 15.3775 28.1539 15.1902 28.1539 14.9995C28.1539 10.3047 25.6739 6.1872 21.965 3.85962C21.9276 3.88043 21.8852 3.90631 21.84 3.9339C21.6355 4.05863 21.3736 4.21841 21.2596 4.10355C21.1112 3.95516 20.7626 3.7407 20.7626 3.7407C21.0614 3.54148 20.168 3.21115 20.168 3.21115L19.1282 3.29449H18.3852C18.3199 3.29449 18.2263 3.27411 18.1208 3.25116C17.985 3.2216 17.8296 3.18777 17.69 3.18777C17.5177 3.18777 17.1734 3.29896 16.9141 3.3827C16.8032 3.41852 16.7078 3.44931 16.6482 3.46423C16.5703 3.48358 16.4529 3.53524 16.3272 3.59052C16.1359 3.67462 15.9255 3.76712 15.8066 3.76712C15.6094 3.76712 15.3106 4.14116 15.3106 4.14116C15.3106 4.14116 14.964 4.7754 15.2628 4.67579C15.5586 4.57619 15.956 4.5711 16.0037 4.72052C16.0282 4.79147 16.0635 4.88504 16.0992 4.97967C16.1377 5.08161 16.1766 5.18478 16.203 5.26226C16.2518 5.41066 16.946 5.45843 16.946 5.45843C16.946 5.45843 17.0456 5.21043 17.194 5.01223C17.3424 4.81403 17.4908 4.56602 17.4908 4.56602C17.4908 4.56602 17.7388 5.06203 17.7886 5.21043C17.8374 5.35984 17.689 5.80503 17.689 5.80503C17.689 5.80503 17.1442 6.15162 16.9947 6.15162C16.8453 6.15162 16.0017 5.40761 16.0017 5.40761C15.7049 5.50722 15.4569 5.65663 15.4569 5.65663C15.1103 6.00424 14.7627 6.30104 14.7627 6.30104C14.7627 6.30104 14.4629 6.40064 14.2657 6.54904C14.1768 6.61561 14.0416 6.65866 13.9089 6.70094C13.7457 6.75291 13.5862 6.80372 13.5207 6.89564C13.2737 7.24223 13.6162 7.49024 13.6162 7.49024L13.3113 7.88664L13.0988 8.03605L12.3741 8.18546L11.9401 8.25864C11.9889 8.40704 11.8924 8.87865 11.8924 8.87865V9.71922C11.8924 9.71922 12.6079 9.91742 12.7573 9.91742C12.7791 9.91742 12.8056 9.91852 12.8355 9.91975C13.01 9.92695 13.3029 9.93904 13.4729 9.76903C13.6691 9.57083 13.9923 9.12462 14.0909 8.97623C14.1895 8.82783 14.3236 8.67944 14.6224 8.57983C14.7953 8.5222 14.8814 8.44755 14.9529 8.38552C15.0038 8.34144 15.0472 8.30373 15.1093 8.28304C15.2587 8.23323 15.8421 8.13362 15.8421 8.13362C15.8421 8.13362 16.1867 8.38264 16.3341 8.48124C16.3511 8.49285 16.3544 8.51078 16.3586 8.53342C16.3715 8.6039 16.3928 8.72008 16.8636 8.83393V9.22627L17.5233 9.17646L17.2245 8.78006L17.1736 8.76685L16.5994 8.18546L16.5567 7.73926C16.5567 7.73926 17.1675 8.08585 17.3657 8.18546C17.5639 8.28405 17.9868 8.58084 17.9868 8.58084L18.2805 9.27404L18.6769 9.75785C18.5438 9.59217 18.2155 9.12462 18.7277 9.12462C18.7277 9.12462 19.1993 9.17443 19.3477 9.12462C19.4972 9.07584 19.6313 9.02705 19.8285 8.92744C19.9252 8.87883 19.9089 8.77141 19.8898 8.64533C19.8697 8.51304 19.8465 8.36021 19.9474 8.23323C20.1466 7.98523 20.4048 7.88562 20.5532 7.83683C20.7026 7.78703 21.2017 7.53902 21.2017 7.53902L21.7505 7.63863C21.5035 7.83683 21.2078 8.13362 21.405 8.08484C21.6032 8.03503 22.0514 8.28304 22.2486 8.43143C22.4468 8.57983 22.2984 8.92744 22.2984 8.92744C22.2984 8.92744 21.7536 8.87764 21.407 8.82783C21.0594 8.77904 20.5136 8.87764 20.5136 8.87764L20.0684 9.12462C20.0684 9.12462 19.7706 9.22423 19.8204 9.47122C19.8692 9.71922 20.0684 10.018 20.2666 10.265C20.311 10.3211 20.3529 10.3796 20.393 10.4354C20.5309 10.6276 20.6463 10.7884 20.7606 10.7112C20.911 10.6116 21.407 10.3148 21.407 10.3148C21.407 10.3148 21.3064 10.6614 21.3572 10.9094C21.407 11.1564 21.407 11.504 21.407 11.504C21.407 11.504 20.911 11.504 21.0594 11.6047C21.1709 11.6778 21.3192 11.911 21.4221 12.0729C21.4552 12.125 21.4836 12.1696 21.5046 12.1993C22.0006 12.8925 23.0414 14.4293 23.141 14.6275C23.1824 14.712 23.1982 14.815 23.2137 14.9166C23.2348 15.0543 23.2555 15.1894 23.3392 15.2719C23.636 15.5697 24.2306 15.2719 24.379 15.1733C24.4255 15.1429 24.5057 15.0976 24.5985 15.0453C24.8033 14.9297 25.0696 14.7794 25.1718 14.6773C25.2314 14.6184 25.2596 14.5906 25.2904 14.5661C25.3374 14.5289 25.3905 14.4995 25.5702 14.3805C25.867 14.1823 26.0652 14.0329 25.9168 13.8845C25.7684 13.7361 25.4716 13.1903 25.4716 13.1903C25.0234 13.2899 24.5782 13.0419 24.5782 12.8935C24.5782 12.7451 24.1818 12.1505 24.1818 12.1505C24.1818 12.1505 24.2306 12.0519 24.5782 12.2491C24.71 12.324 24.8343 12.4275 24.954 12.5271C25.1509 12.691 25.3356 12.8447 25.5214 12.8447C25.7962 12.8447 25.943 12.9292 26.2392 13.0999C26.2629 13.1136 26.2875 13.1278 26.3132 13.1425C26.505 13.2513 26.6364 13.3755 26.7488 13.4818C26.8402 13.5681 26.919 13.6426 27.0074 13.6873C27.2056 13.7869 27.5034 14.1833 27.5034 14.1833C27.5034 14.1833 27.8012 14.8775 27.85 15.0767C27.8719 15.1623 27.9393 15.322 28.0092 15.4876C28.0463 15.5757 28.0842 15.6654 28.1163 15.7465C28.12 15.6859 28.1242 15.6255 28.1283 15.5652Z" fill="#272727"/>
</svg>
