<svg width="30" height="30" viewBox="0 0 30 30" fill="none" xmlns="http://www.w3.org/2000/svg">
<path d="M14.7915 29.3526C22.6599 29.3494 29.0594 22.9483 29.0625 15.0816C29.064 11.2684 27.581 7.68287 24.8866 4.98546C22.1922 2.28791 18.609 0.801697 14.7913 0.800049C6.92521 0.800049 0.523171 7.20174 0.52004 15.0703C0.51897 17.5855 1.17612 20.0406 2.42501 22.2049L0.400391 29.6L7.96574 27.6155C10.0502 28.7525 12.3971 29.3517 14.7856 29.3526H14.7915Z" fill="#CACACA"/>
<path fill-rule="evenodd" clip-rule="evenodd" d="M3.82699 26.2096L8.31638 25.0319L8.74951 25.289C10.5707 26.3697 12.6583 26.9415 14.7868 26.9424H14.7916C21.3294 26.9424 26.6504 21.6212 26.653 15.0807C26.6543 11.9112 25.4217 8.9311 23.1822 6.689C20.9427 4.4469 17.9645 3.21155 14.7963 3.21045C8.25344 3.21045 2.93228 8.53112 2.92969 15.0711C2.92877 17.3124 3.55588 19.4951 4.74325 21.3836L5.02528 21.8324L3.82699 26.2096ZM21.4929 18.1541C21.7416 18.2743 21.9096 18.3554 21.9813 18.4751C22.0704 18.6238 22.0704 19.3378 21.7734 20.1709C21.4761 21.0038 20.0516 21.764 19.3664 21.8663C18.7521 21.9582 17.9747 21.9965 17.1205 21.725C16.6025 21.5607 15.9384 21.3413 15.0876 20.9739C11.7447 19.5304 9.48554 16.2904 9.05856 15.678C9.02865 15.6351 9.00773 15.6051 8.99606 15.5896L8.99319 15.5857C8.80448 15.3339 7.54003 13.6468 7.54003 11.9008C7.54003 10.2583 8.34687 9.39732 8.71825 9.00103C8.7437 8.97388 8.7671 8.94891 8.78806 8.92602C9.1149 8.56902 9.50125 8.47977 9.73895 8.47977C9.97665 8.47977 10.2146 8.48196 10.4224 8.4924C10.448 8.49369 10.4747 8.49353 10.5023 8.49337C10.7101 8.49215 10.9691 8.49063 11.2247 9.10452C11.323 9.34075 11.4669 9.69097 11.6186 10.0603C11.9254 10.8074 12.2645 11.6328 12.3241 11.7522C12.4133 11.9307 12.4727 12.1389 12.3538 12.377C12.336 12.4127 12.3195 12.4464 12.3037 12.4785C12.2145 12.6608 12.1488 12.7949 11.9973 12.9718C11.9377 13.0414 11.8761 13.1164 11.8145 13.1913C11.6918 13.3407 11.5692 13.4901 11.4624 13.5965C11.2839 13.7743 11.098 13.9673 11.306 14.3243C11.514 14.6813 12.2297 15.8489 13.2898 16.7945C14.4293 17.8109 15.4197 18.2405 15.9217 18.4583C16.0197 18.5008 16.0991 18.5352 16.1574 18.5644C16.5138 18.7429 16.7219 18.7131 16.9299 18.4751C17.1379 18.2372 17.8213 17.4339 18.059 17.0769C18.2966 16.7201 18.5345 16.7795 18.8612 16.8985C19.1882 17.0176 20.9413 17.8801 21.2979 18.0586C21.3675 18.0935 21.4326 18.1249 21.4929 18.1541Z" fill="#272727"/>
</svg>
