<svg viewBox="0 0 24 24" xmlns="http://www.w3.org/2000/svg"><g display="inline"><path d="M12 292.65c-2.199 0-4 1.801-4 4v1H5a1 1 0 0 0-1 1v10c0 2.199 1.801 4 4 4h8c2.199 0 4-1.801 4-4v-10a1 1 0 0 0-1-1h-3v-1c0-2.199-1.801-4-4-4zm0 2c1.125 0 2 .875 2 2v1h-4v-1c0-1.125.875-2 2-2zm-6 5h2v2.979a1 1 0 0 0 1 1 1 1 0 0 0 1-1v-2.979h4v2.979a1 1 0 0 0 1 1 1 1 0 0 0 1-1v-2.979h2v9c0 1.125-.875 2-2 2H8c-1.125 0-2-.875-2-2z" style="line-height:normal;font-variant-ligatures:normal;font-variant-position:normal;font-variant-caps:normal;font-variant-numeric:normal;font-variant-alternates:normal;font-variant-east-asian:normal;font-feature-settings:normal;font-variation-settings:normal;text-indent:0;text-align:start;text-decoration-line:none;text-decoration-style:solid;text-decoration-color:#000;text-transform:none;text-orientation:mixed;white-space:normal;shape-padding:0;shape-margin:0;inline-size:0;isolation:auto;mix-blend-mode:normal;solid-color:#000;solid-opacity:1" transform="translate(0 -290.65)" color="#000000" font-style="normal" font-variant="normal" font-weight="400" font-stretch="normal" font-size="medium" font-family="sans-serif" text-decoration="none" letter-spacing="normal" word-spacing="normal" writing-mode="lr-tb" direction="ltr" dominant-baseline="auto" baseline-shift="baseline" text-anchor="start" clip-rule="nonzero" display="inline" overflow="visible" visibility="visible" opacity="1" color-interpolation="sRGB" color-interpolation-filters="linearRGB" vector-effect="none" fill="#ffffff" fill-opacity="1" fill-rule="nonzero" stroke="none" stroke-linecap="round" stroke-linejoin="round" stroke-miterlimit="4" stroke-dasharray="none" stroke-dashoffset="0" stroke-opacity="1" color-rendering="auto" image-rendering="auto" shape-rendering="auto" text-rendering="auto" enable-background="accumulate" stop-color="#ffffff" stop-opacity="1" class="fill-000000 stop-color-000000"></path></g></svg>