<svg width="24" height="18" viewBox="0 0 24 18" fill="none" xmlns="http://www.w3.org/2000/svg">
<path d="M20.317 1.49295C18.787 0.80295 17.147 0.29295 15.432 0.00295017C15.4167 1.80819e-05 15.4009 0.00190762 15.3868 0.0083575C15.3726 0.0148074 15.3608 0.0254985 15.353 0.0389502C15.143 0.40795 14.909 0.88895 14.745 1.26895C12.9261 0.997187 11.0769 0.997187 9.25799 1.26895C9.07533 0.847811 8.86934 0.437174 8.64099 0.0389502C8.63325 0.0253329 8.62154 0.0143999 8.60743 0.0076103C8.59331 0.000820665 8.57746 -0.00150281 8.56199 0.000950073C6.84799 0.29095 5.20799 0.80095 3.67699 1.49195C3.66382 1.49747 3.65265 1.5069 3.64499 1.51895C0.532992 6.09395 -0.320008 10.556 0.0989923 14.962C0.100158 14.9727 0.103508 14.9832 0.108837 14.9926C0.114167 15.0021 0.121364 15.0104 0.129992 15.017C1.94638 16.3394 3.97233 17.3468 6.12299 17.997C6.13798 18.0016 6.15402 18.0016 6.16901 17.9969C6.18399 17.9923 6.19723 17.9832 6.20699 17.9709C6.66979 17.352 7.07989 16.6954 7.43299 16.0079C7.43789 15.9986 7.44072 15.9882 7.44127 15.9776C7.44183 15.967 7.44011 15.9565 7.43622 15.9466C7.43233 15.9367 7.42637 15.9278 7.41874 15.9205C7.41111 15.9131 7.40199 15.9075 7.39199 15.9039C6.746 15.6607 6.12008 15.3671 5.51999 15.0259C5.50921 15.0198 5.50012 15.0111 5.49355 15.0005C5.48698 14.99 5.48312 14.978 5.48233 14.9656C5.48153 14.9532 5.48383 14.9408 5.48901 14.9295C5.49418 14.9183 5.50208 14.9084 5.51199 14.9009C5.63799 14.8079 5.76399 14.711 5.88399 14.614C5.89479 14.6052 5.9078 14.5997 5.92158 14.5979C5.93535 14.5961 5.94934 14.5982 5.96199 14.604C9.88899 16.368 14.142 16.368 18.023 14.604C18.0357 14.5979 18.0498 14.5955 18.0638 14.5971C18.0778 14.5987 18.091 14.6042 18.102 14.6129C18.222 14.7109 18.347 14.8079 18.474 14.9009C18.484 14.9083 18.492 14.918 18.4974 14.9292C18.5027 14.9403 18.5052 14.9527 18.5046 14.9651C18.504 14.9774 18.5004 14.9895 18.494 15.0001C18.4876 15.0107 18.4787 15.0196 18.468 15.0259C17.87 15.3699 17.248 15.661 16.595 15.903C16.585 15.9066 16.5758 15.9123 16.5682 15.9198C16.5606 15.9272 16.5546 15.9362 16.5507 15.9462C16.5468 15.9561 16.5451 15.9668 16.5457 15.9774C16.5463 15.9881 16.5491 15.9985 16.554 16.0079C16.914 16.695 17.326 17.3489 17.779 17.9699C17.7884 17.9827 17.8015 17.9922 17.8166 17.9972C17.8316 18.0022 17.8478 18.0025 17.863 17.9979C20.0173 17.3496 22.0466 16.3417 23.865 15.017C23.8739 15.0107 23.8813 15.0027 23.8868 14.9934C23.8923 14.9841 23.8958 14.9737 23.897 14.9629C24.397 9.86895 23.059 5.44295 20.348 1.52095C20.3413 1.5082 20.3303 1.49827 20.317 1.49295ZM8.01999 12.2789C6.83799 12.2789 5.86299 11.2099 5.86299 9.89895C5.86299 8.58695 6.81899 7.51895 8.01999 7.51895C9.22999 7.51895 10.196 8.59595 10.177 9.89895C10.177 11.2109 9.22099 12.2789 8.01999 12.2789ZM15.995 12.2789C14.812 12.2789 13.838 11.2099 13.838 9.89895C13.838 8.58695 14.793 7.51895 15.995 7.51895C17.205 7.51895 18.171 8.59595 18.152 9.89895C18.152 11.2109 17.206 12.2789 15.995 12.2789Z" fill="#757575"/>
</svg>
