<svg width="21" height="16" viewBox="0 0 21 16" fill="none" xmlns="http://www.w3.org/2000/svg">
<path d="M6.56962 6.84615C8.18399 6.84615 9.4927 5.53745 9.4927 3.92308C9.4927 2.30871 8.18399 1 6.56962 1C4.95525 1 3.64655 2.30871 3.64655 3.92308C3.64655 5.53745 4.95525 6.84615 6.56962 6.84615Z" stroke="#A7A7A7" stroke-width="1.5" stroke-linecap="round" stroke-linejoin="round"/>
<path d="M9.5 3.92383H20" stroke="#A7A7A7" stroke-width="1.5" stroke-linecap="round" stroke-linejoin="round"/>
<path d="M1 3.92383H2.92" stroke="#A7A7A7" stroke-width="1.5" stroke-linecap="round" stroke-linejoin="round"/>
<path d="M14.4304 8.99955C12.816 8.99955 11.5073 10.3083 11.5073 11.9226C11.5073 13.537 12.816 14.8457 14.4304 14.8457C16.0447 14.8457 17.3535 13.537 17.3535 11.9226C17.3535 10.3083 16.0447 8.99955 14.4304 8.99955Z" stroke="#A7A7A7" stroke-width="1.5" stroke-linecap="round" stroke-linejoin="round"/>
<path d="M11.5 11.9229H1" stroke="#A7A7A7" stroke-width="1.5" stroke-linecap="round" stroke-linejoin="round"/>
<path d="M20 11.9229H18.08" stroke="#A7A7A7" stroke-width="1.5" stroke-linecap="round" stroke-linejoin="round"/>
</svg>
