<svg width="18" height="18" viewBox="0 0 18 18" fill="none" xmlns="http://www.w3.org/2000/svg">
<path d="M12.6665 1H4.74984C2.56371 1 0.791504 2.77221 0.791504 4.95833V12.875C0.791504 15.0611 2.56371 16.8333 4.74984 16.8333H12.6665C14.8526 16.8333 16.6248 15.0611 16.6248 12.875V4.95833C16.6248 2.77221 14.8526 1 12.6665 1Z" stroke="#757575" stroke-width="1.5" stroke-linecap="round" stroke-linejoin="round"/>
<path d="M11.8748 8.41799C11.9725 9.07685 11.8599 9.74975 11.5532 10.341C11.2464 10.9322 10.761 11.4116 10.1661 11.7111C9.5711 12.0105 8.89687 12.1148 8.23927 12.0089C7.58166 11.9031 6.97416 11.5926 6.50318 11.1217C6.0322 10.6507 5.72172 10.0432 5.6159 9.38558C5.51009 8.72797 5.61432 8.05374 5.91378 7.45879C6.21323 6.86384 6.69267 6.37845 7.28388 6.07168C7.8751 5.76491 8.54799 5.65238 9.20685 5.75008C9.87892 5.84973 10.5011 6.1629 10.9815 6.64332C11.4619 7.12374 11.7751 7.74593 11.8748 8.41799Z" stroke="#757575" stroke-width="1.5" stroke-linecap="round" stroke-linejoin="round"/>
<path d="M13.0625 4.5625H13.0705" stroke="#757575" stroke-width="1.5" stroke-linecap="round" stroke-linejoin="round"/>
</svg>
