<svg width="14" height="13" viewBox="0 0 14 13" fill="none" xmlns="http://www.w3.org/2000/svg">
<path d="M12.0747 1.97248C11.7815 1.66418 11.4333 1.41961 11.0502 1.25275C10.667 1.08588 10.2563 1 9.84153 1C9.42676 1 9.01606 1.08588 8.63289 1.25275C8.24972 1.41961 7.90158 1.66418 7.60837 1.97248L6.99985 2.61202L6.39132 1.97248C5.79905 1.35002 4.99576 1.00032 4.15816 1.00032C3.32057 1.00032 2.51728 1.35002 1.92501 1.97248C1.33273 2.59494 1 3.43918 1 4.31947C1 5.19977 1.33273 6.04401 1.92501 6.66647L2.53353 7.30601L6.99985 12L11.4662 7.30601L12.0747 6.66647C12.368 6.35831 12.6007 5.99243 12.7595 5.58972C12.9183 5.18702 13 4.75538 13 4.31947C13 3.88357 12.9183 3.45193 12.7595 3.04923C12.6007 2.64652 12.368 2.28064 12.0747 1.97248V1.97248Z" stroke="#A7A7A7" stroke-width="1.4" stroke-linecap="round" stroke-linejoin="round"/>
</svg>
