<svg width="20" height="16" viewBox="0 0 20 16" fill="none" xmlns="http://www.w3.org/2000/svg">
<path d="M19.0002 1.00796C18.2421 1.54271 17.4027 1.95171 16.5143 2.21921C16.0375 1.67099 15.4039 1.28243 14.6991 1.10607C13.9942 0.929713 13.2523 0.974074 12.5735 1.23315C11.8947 1.49223 11.3118 1.95353 10.9038 2.55465C10.4957 3.15578 10.2821 3.86773 10.2918 4.59421V5.38588C8.90058 5.42195 7.522 5.1134 6.27888 4.48769C5.03575 3.86198 3.96666 2.93855 3.16683 1.79963C3.16683 1.79963 0.00016284 8.92463 7.12516 12.0913C5.49475 13.198 3.5525 13.7529 1.5835 13.6746C8.7085 17.633 17.4168 13.6746 17.4168 4.57046C17.4161 4.34994 17.3949 4.12997 17.3535 3.91338C18.1615 3.11656 18.7317 2.11053 19.0002 1.00796V1.00796Z" stroke="#757575" stroke-width="1.5" stroke-linecap="round" stroke-linejoin="round"/>
</svg>
